<svg width="47" height="68" viewBox="0 0 47 68" fill="none" xmlns="http://www.w3.org/2000/svg">
<path d="M0 8.44132C0 4.02304 3.58172 0.441315 8 0.441315H47V67.4413H8C3.58172 67.4413 0 63.8596 0 59.4413V8.44132Z" fill="black" fill-opacity="0.7"/>
<path d="M13.6003 18.9413C13.495 18.9413 13.3915 18.9136 13.3003 18.8609L10.0003 16.9577L6.70029 18.8609C6.60908 18.9136 6.50562 18.9413 6.4003 18.9413C6.29498 18.9413 6.19151 18.9136 6.1003 18.8609C6.00909 18.8083 5.93335 18.7325 5.88068 18.6413C5.82802 18.5501 5.8003 18.4466 5.80029 18.3413V8.74131C5.80077 8.26407 5.99056 7.80651 6.32803 7.46905C6.66549 7.13159 7.12305 6.94179 7.60029 6.94131H12.4003C12.8775 6.94179 13.3351 7.13159 13.6726 7.46905C14.01 7.80651 14.1998 8.26407 14.2003 8.74131V18.3413C14.2003 18.5004 14.1371 18.6531 14.0246 18.7656C13.912 18.8781 13.7594 18.9413 13.6003 18.9413Z" fill="white"/>
<path d="M25.872 17.4413V9.64131L26.556 10.3493H24.096V9.04131H27.432V17.4413H25.872ZM28.5103 17.4413V16.3973L31.8463 13.2293C32.1263 12.9653 32.3343 12.7333 32.4703 12.5333C32.6063 12.3333 32.6943 12.1493 32.7343 11.9813C32.7823 11.8053 32.8063 11.6413 32.8063 11.4893C32.8063 11.1053 32.6743 10.8093 32.4103 10.6013C32.1463 10.3853 31.7583 10.2773 31.2463 10.2773C30.8383 10.2773 30.4663 10.3493 30.1303 10.4933C29.8023 10.6373 29.5183 10.8573 29.2783 11.1533L28.1863 10.3133C28.5143 9.87331 28.9543 9.53331 29.5063 9.29331C30.0663 9.04531 30.6903 8.92131 31.3783 8.92131C31.9863 8.92131 32.5143 9.02131 32.9623 9.22131C33.4183 9.41331 33.7663 9.68931 34.0063 10.0493C34.2543 10.4093 34.3783 10.8373 34.3783 11.3333C34.3783 11.6053 34.3423 11.8773 34.2703 12.1493C34.1983 12.4133 34.0623 12.6933 33.8623 12.9893C33.6623 13.2853 33.3703 13.6173 32.9863 13.9853L30.1183 16.7093L29.7943 16.1213H34.7023V17.4413H28.5103ZM34.8269 15.5333V14.4533L38.9669 9.04131H40.6349L36.5549 14.4533L35.7749 14.2133H42.4349V15.5333H34.8269ZM39.4349 17.4413V15.5333L39.4829 14.2133V12.5213H40.9469V17.4413H39.4349Z" fill="white"/>
<path d="M15.6121 32.2447L12.0148 31.7212L10.4067 28.457C10.3627 28.3676 10.2905 28.2953 10.2012 28.2513C9.97736 28.1406 9.70532 28.2328 9.59339 28.457L7.98528 31.7212L4.38791 32.2447C4.28873 32.2589 4.19805 32.3057 4.12863 32.3766C4.0447 32.463 3.99845 32.5792 4.00004 32.6997C4.00163 32.8202 4.05094 32.9351 4.13713 33.0192L6.73987 35.56L6.12496 39.1476C6.11054 39.2311 6.11976 39.3169 6.15159 39.3954C6.18341 39.4739 6.23655 39.5419 6.305 39.5916C6.37344 39.6414 6.45444 39.671 6.53882 39.677C6.6232 39.683 6.70757 39.6653 6.78238 39.6257L10 37.9319L13.2177 39.6257C13.3055 39.6725 13.4075 39.6881 13.5053 39.6711C13.7518 39.6285 13.9176 39.3945 13.8751 39.1476L13.2602 35.56L15.8629 33.0192C15.9338 32.9497 15.9805 32.8589 15.9947 32.7596C16.033 32.5114 15.8601 32.2816 15.6121 32.2447Z" fill="white"/>
<path d="M24.408 36.5333V35.4533L28.548 30.0413H30.216L26.136 35.4533L25.356 35.2133H32.016V36.5333H24.408ZM29.016 38.4413V36.5333L29.064 35.2133V33.5213H30.528V38.4413H29.016Z" fill="white"/>
<path d="M14.7836 50.5501C14.7691 50.5175 14.7454 50.4899 14.7155 50.4706C14.6856 50.4513 14.6507 50.4411 14.6151 50.4413H9.39998C9.36866 50.4414 9.33785 50.4493 9.31038 50.4644C9.28291 50.4794 9.25965 50.5012 9.24274 50.5276L5.23311 56.9026C5.21381 56.9303 5.20253 56.9629 5.20052 56.9966C5.19851 57.0304 5.20585 57.0641 5.22172 57.0939C5.23759 57.1238 5.26139 57.1487 5.29048 57.1659C5.31958 57.1831 5.35284 57.1919 5.38661 57.1913H8.25811L5.72355 62.1601C5.709 62.1896 5.70216 62.2224 5.70367 62.2553C5.70518 62.2882 5.715 62.3202 5.73219 62.3483C5.74939 62.3764 5.77341 62.3996 5.80202 62.4159C5.83062 62.4322 5.86288 62.4409 5.89577 62.4413H7.01891C7.04489 62.4415 7.07063 62.4362 7.09448 62.4259C7.11832 62.4156 7.13977 62.4004 7.15743 62.3813L13.7353 55.2601C13.7614 55.2334 13.779 55.1995 13.7858 55.1628C13.7925 55.1261 13.7882 55.0882 13.7733 55.0539C13.7584 55.0197 13.7337 54.9907 13.7022 54.9706C13.6708 54.9505 13.6341 54.9403 13.5968 54.9413H11.0735L14.7536 50.7488C14.7774 50.7222 14.7928 50.6892 14.7981 50.6539C14.8035 50.6186 14.7984 50.5825 14.7836 50.5501Z" fill="white"/>
<path d="M28.032 59.5613C27.368 59.5613 26.768 59.3933 26.232 59.0573C25.704 58.7213 25.288 58.2333 24.984 57.5933C24.68 56.9453 24.528 56.1613 24.528 55.2413C24.528 54.3213 24.68 53.5413 24.984 52.9013C25.288 52.2533 25.704 51.7613 26.232 51.4253C26.768 51.0893 27.368 50.9213 28.032 50.9213C28.704 50.9213 29.304 51.0893 29.832 51.4253C30.36 51.7613 30.776 52.2533 31.08 52.9013C31.392 53.5413 31.548 54.3213 31.548 55.2413C31.548 56.1613 31.392 56.9453 31.08 57.5933C30.776 58.2333 30.36 58.7213 29.832 59.0573C29.304 59.3933 28.704 59.5613 28.032 59.5613ZM28.032 58.2053C28.424 58.2053 28.764 58.1013 29.052 57.8933C29.34 57.6773 29.564 57.3493 29.724 56.9093C29.892 56.4693 29.976 55.9133 29.976 55.2413C29.976 54.5613 29.892 54.0053 29.724 53.5733C29.564 53.1333 29.34 52.8093 29.052 52.6013C28.764 52.3853 28.424 52.2773 28.032 52.2773C27.656 52.2773 27.32 52.3853 27.024 52.6013C26.736 52.8093 26.508 53.1333 26.34 53.5733C26.18 54.0053 26.1 54.5613 26.1 55.2413C26.1 55.9133 26.18 56.4693 26.34 56.9093C26.508 57.3493 26.736 57.6773 27.024 57.8933C27.32 58.1013 27.656 58.2053 28.032 58.2053Z" fill="white"/>
</svg>
