<svg width="86" height="40" viewBox="0 0 86 40" fill="none" xmlns="http://www.w3.org/2000/svg">
<rect x="0.0476074" width="41" height="40" rx="20" fill="#C3DCE3"/>
<path d="M23.1266 23.6H17.9266L16.9346 26H14.2786L19.2706 14.8H21.8306L26.8386 26H24.1186L23.1266 23.6ZM22.3106 21.632L20.5346 17.344L18.7586 21.632H22.3106Z" fill="#2B788B"/>
<path d="M59.8156 23.408H54.2156L53.1116 26H50.9676L56.0076 14.8H58.0556L63.1116 26H60.9356L59.8156 23.408ZM59.1276 21.776L57.0156 16.88L54.9196 21.776H59.1276ZM63.704 14.128H65.704V26H63.704V14.128ZM75.721 21.776C75.721 21.9147 75.7103 22.112 75.689 22.368H68.985C69.1023 22.9973 69.4063 23.4987 69.897 23.872C70.3983 24.2347 71.017 24.416 71.753 24.416C72.6916 24.416 73.465 24.1067 74.073 23.488L75.145 24.72C74.761 25.1787 74.2756 25.5253 73.689 25.76C73.1023 25.9947 72.441 26.112 71.705 26.112C70.7663 26.112 69.9396 25.9253 69.225 25.552C68.5103 25.1787 67.9556 24.6613 67.561 24C67.177 23.328 66.985 22.5707 66.985 21.728C66.985 20.896 67.1716 20.1493 67.545 19.488C67.929 18.816 68.457 18.2933 69.129 17.92C69.801 17.5467 70.5583 17.36 71.401 17.36C72.233 17.36 72.9743 17.5467 73.625 17.92C74.2863 18.2827 74.7983 18.8 75.161 19.472C75.5343 20.1333 75.721 20.9013 75.721 21.776ZM71.401 18.96C70.761 18.96 70.217 19.152 69.769 19.536C69.3316 19.9093 69.065 20.4107 68.969 21.04H73.817C73.7316 20.4213 73.4703 19.92 73.033 19.536C72.5956 19.152 72.0516 18.96 71.401 18.96ZM82.2077 26L80.0157 23.04L77.8077 26H75.5997L78.9277 21.664L75.7437 17.456H77.9677L80.0637 20.256L82.1597 17.456H84.3197L81.1197 21.632L84.4637 26H82.2077Z" fill="#757575"/>
</svg>
